<svg width="51" height="28" viewBox="0 0 51 28" fill="none" xmlns="http://www.w3.org/2000/svg">
<path d="M6.58 21V3.808H0.784V1.4H15.316V3.808H9.548V21H6.58ZM21.9618 21.336C20.6365 21.336 19.4418 21.0373 18.3778 20.44C17.3325 19.824 16.5018 18.9747 15.8858 17.892C15.2698 16.7907 14.9618 15.512 14.9618 14.056C14.9618 12.6 15.2698 11.3307 15.8858 10.248C16.5205 9.14667 17.3698 8.29733 18.4338 7.7C19.4978 7.084 20.6832 6.776 21.9898 6.776C23.3152 6.776 24.5005 7.084 25.5458 7.7C26.6098 8.29733 27.4498 9.14667 28.0658 10.248C28.7005 11.3307 29.0178 12.6 29.0178 14.056C29.0178 15.512 28.7005 16.7907 28.0658 17.892C27.4498 18.9747 26.6098 19.824 25.5458 20.44C24.4818 21.0373 23.2872 21.336 21.9618 21.336ZM21.9618 18.788C22.6712 18.788 23.3245 18.6107 23.9218 18.256C24.5378 17.9013 25.0325 17.3787 25.4058 16.688C25.7792 15.9787 25.9658 15.1013 25.9658 14.056C25.9658 13.0107 25.7792 12.1427 25.4058 11.452C25.0512 10.7427 24.5658 10.2107 23.9498 9.856C23.3525 9.50133 22.6992 9.324 21.9898 9.324C21.2805 9.324 20.6178 9.50133 20.0018 9.856C19.4045 10.2107 18.9192 10.7427 18.5458 11.452C18.1725 12.1427 17.9858 13.0107 17.9858 14.056C17.9858 15.1013 18.1725 15.9787 18.5458 16.688C18.9192 17.3787 19.4045 17.9013 20.0018 18.256C20.5992 18.6107 21.2525 18.788 21.9618 18.788ZM37.1733 16.744C36.4453 16.744 35.7733 16.66 35.1573 16.492L33.9533 17.668C34.1586 17.7987 34.4106 17.9107 34.7093 18.004C35.0079 18.0973 35.4279 18.1813 35.9693 18.256C36.5106 18.3307 37.2479 18.4053 38.1813 18.48C40.0293 18.648 41.3639 19.096 42.1853 19.824C43.0066 20.5333 43.4173 21.4853 43.4173 22.68C43.4173 23.5013 43.1933 24.276 42.7453 25.004C42.3159 25.7507 41.6346 26.348 40.7013 26.796C39.7866 27.2627 38.6106 27.496 37.1733 27.496C35.2319 27.496 33.6546 27.1227 32.4413 26.376C31.2466 25.648 30.6493 24.5373 30.6493 23.044C30.6493 22.4653 30.7986 21.8867 31.0973 21.308C31.4146 20.748 31.9093 20.216 32.5813 19.712C32.1893 19.544 31.8439 19.3667 31.5453 19.18C31.2653 18.9747 31.0133 18.7693 30.7893 18.564V17.892L33.1973 15.428C32.1146 14.4947 31.5733 13.272 31.5733 11.76C31.5733 10.8453 31.7879 10.0147 32.2173 9.268C32.6653 8.50267 33.3093 7.896 34.1493 7.448C34.9893 7 35.9973 6.776 37.1733 6.776C37.9573 6.776 38.6853 6.888 39.3573 7.112H44.5373V9.072L42.0733 9.212C42.5213 9.97733 42.7453 10.8267 42.7453 11.76C42.7453 12.6933 42.5213 13.5333 42.0733 14.28C41.6439 15.0267 41.0093 15.624 40.1693 16.072C39.3479 16.52 38.3493 16.744 37.1733 16.744ZM37.1733 14.42C38.0319 14.42 38.7226 14.196 39.2453 13.748C39.7866 13.2813 40.0573 12.628 40.0573 11.788C40.0573 10.9293 39.7866 10.276 39.2453 9.828C38.7226 9.38 38.0319 9.156 37.1733 9.156C36.2959 9.156 35.5866 9.38 35.0453 9.828C34.5226 10.276 34.2613 10.9293 34.2613 11.788C34.2613 12.628 34.5226 13.2813 35.0453 13.748C35.5866 14.196 36.2959 14.42 37.1733 14.42ZM33.4493 22.764C33.4493 23.5667 33.8039 24.164 34.5133 24.556C35.2226 24.9667 36.1093 25.172 37.1733 25.172C38.1999 25.172 39.0306 24.948 39.6653 24.5C40.2999 24.0707 40.6173 23.492 40.6173 22.764C40.6173 22.2227 40.4026 21.756 39.9733 21.364C39.5439 20.9907 38.7319 20.7573 37.5373 20.664C36.6413 20.608 35.8479 20.524 35.1573 20.412C34.5039 20.7667 34.0559 21.1493 33.8133 21.56C33.5706 21.9707 33.4493 22.372 33.4493 22.764ZM48.8646 4.48C48.3046 4.48 47.8379 4.312 47.4646 3.976C47.1099 3.62133 46.9326 3.18267 46.9326 2.66C46.9326 2.13733 47.1099 1.708 47.4646 1.372C47.8379 1.01733 48.3046 0.839999 48.8646 0.839999C49.4246 0.839999 49.8819 1.01733 50.2366 1.372C50.6099 1.708 50.7966 2.13733 50.7966 2.66C50.7966 3.18267 50.6099 3.62133 50.2366 3.976C49.8819 4.312 49.4246 4.48 48.8646 4.48ZM47.3806 21V7.112H50.3486V21H47.3806Z" fill="white"/>
</svg>
