<svg width="6" height="14" viewBox="0 0 6 14" fill="none" xmlns="http://www.w3.org/2000/svg">
<path fill-rule="evenodd" clip-rule="evenodd" d="M1.32084 7.04951V13.3303C1.32084 13.4151 1.3911 13.5 1.48946 13.5H3.80796C3.89227 13.5 3.97658 13.4293 3.97658 13.3303V6.93634H5.64871C5.73302 6.93634 5.80328 6.86561 5.81733 6.78074L5.95785 4.87106C5.9719 4.77203 5.88759 4.68716 5.78923 4.68716H3.96253V3.32916C3.96253 3.00381 4.21546 2.74918 4.53864 2.74918H5.83138C5.91569 2.74918 6 2.67845 6 2.57943V0.66975C6 0.584875 5.92974 0.5 5.83138 0.5H3.63934C2.36066 0.5 1.32084 1.54679 1.32084 2.83406V4.68716H0.168618C0.0843092 4.68716 0 4.75789 0 4.85691V6.78074C0 6.86561 0.0702577 6.95049 0.168618 6.95049H1.32084V7.04951Z" fill="#222222"/>
</svg>
