<svg width="44" height="24" viewBox="0 0 44 24" fill="none" xmlns="http://www.w3.org/2000/svg">
<path d="M5.64 18V3.264H0.672V1.2H13.128V3.264H8.184V18H5.64ZM18.8244 18.288C17.6884 18.288 16.6644 18.032 15.7524 17.52C14.8564 16.992 14.1444 16.264 13.6164 15.336C13.0884 14.392 12.8244 13.296 12.8244 12.048C12.8244 10.8 13.0884 9.712 13.6164 8.784C14.1604 7.84 14.8884 7.112 15.8004 6.6C16.7124 6.072 17.7284 5.808 18.8484 5.808C19.9844 5.808 21.0004 6.072 21.8964 6.6C22.8084 7.112 23.5284 7.84 24.0564 8.784C24.6004 9.712 24.8724 10.8 24.8724 12.048C24.8724 13.296 24.6004 14.392 24.0564 15.336C23.5284 16.264 22.8084 16.992 21.8964 17.52C20.9844 18.032 19.9604 18.288 18.8244 18.288ZM18.8244 16.104C19.4324 16.104 19.9924 15.952 20.5044 15.648C21.0324 15.344 21.4564 14.896 21.7764 14.304C22.0964 13.696 22.2564 12.944 22.2564 12.048C22.2564 11.152 22.0964 10.408 21.7764 9.816C21.4724 9.208 21.0564 8.752 20.5284 8.448C20.0164 8.144 19.4564 7.992 18.8484 7.992C18.2404 7.992 17.6724 8.144 17.1444 8.448C16.6324 8.752 16.2164 9.208 15.8964 9.816C15.5764 10.408 15.4164 11.152 15.4164 12.048C15.4164 12.944 15.5764 13.696 15.8964 14.304C16.2164 14.896 16.6324 15.344 17.1444 15.648C17.6564 15.952 18.2164 16.104 18.8244 16.104ZM31.8628 14.352C31.2388 14.352 30.6628 14.28 30.1348 14.136L29.1028 15.144C29.2788 15.256 29.4948 15.352 29.7508 15.432C30.0068 15.512 30.3668 15.584 30.8308 15.648C31.2948 15.712 31.9268 15.776 32.7268 15.84C34.3108 15.984 35.4548 16.368 36.1588 16.992C36.8628 17.6 37.2148 18.416 37.2148 19.44C37.2148 20.144 37.0228 20.808 36.6388 21.432C36.2708 22.072 35.6868 22.584 34.8868 22.968C34.1028 23.368 33.0948 23.568 31.8628 23.568C30.1988 23.568 28.8468 23.248 27.8068 22.608C26.7828 21.984 26.2708 21.032 26.2708 19.752C26.2708 19.256 26.3988 18.76 26.6548 18.264C26.9268 17.784 27.3508 17.328 27.9268 16.896C27.5908 16.752 27.2948 16.6 27.0388 16.44C26.7988 16.264 26.5828 16.088 26.3908 15.912V15.336L28.4548 13.224C27.5268 12.424 27.0628 11.376 27.0628 10.08C27.0628 9.296 27.2468 8.584 27.6148 7.944C27.9988 7.288 28.5508 6.768 29.2708 6.384C29.9908 6 30.8548 5.808 31.8628 5.808C32.5348 5.808 33.1588 5.904 33.7348 6.096H38.1748V7.776L36.0628 7.896C36.4468 8.552 36.6388 9.28 36.6388 10.08C36.6388 10.88 36.4468 11.6 36.0628 12.24C35.6948 12.88 35.1508 13.392 34.4308 13.776C33.7268 14.16 32.8708 14.352 31.8628 14.352ZM31.8628 12.36C32.5988 12.36 33.1908 12.168 33.6388 11.784C34.1028 11.384 34.3348 10.824 34.3348 10.104C34.3348 9.368 34.1028 8.808 33.6388 8.424C33.1908 8.04 32.5988 7.848 31.8628 7.848C31.1108 7.848 30.5028 8.04 30.0388 8.424C29.5908 8.808 29.3668 9.368 29.3668 10.104C29.3668 10.824 29.5908 11.384 30.0388 11.784C30.5028 12.168 31.1108 12.36 31.8628 12.36ZM28.6708 19.512C28.6708 20.2 28.9748 20.712 29.5828 21.048C30.1908 21.4 30.9508 21.576 31.8628 21.576C32.7428 21.576 33.4548 21.384 33.9988 21C34.5428 20.632 34.8148 20.136 34.8148 19.512C34.8148 19.048 34.6308 18.648 34.2628 18.312C33.8948 17.992 33.1988 17.792 32.1748 17.712C31.4068 17.664 30.7268 17.592 30.1348 17.496C29.5748 17.8 29.1908 18.128 28.9828 18.48C28.7748 18.832 28.6708 19.176 28.6708 19.512ZM41.8839 3.84C41.4039 3.84 41.0039 3.696 40.6839 3.408C40.3799 3.104 40.2279 2.728 40.2279 2.28C40.2279 1.832 40.3799 1.464 40.6839 1.176C41.0039 0.871999 41.4039 0.719999 41.8839 0.719999C42.3639 0.719999 42.7559 0.871999 43.0599 1.176C43.3799 1.464 43.5399 1.832 43.5399 2.28C43.5399 2.728 43.3799 3.104 43.0599 3.408C42.7559 3.696 42.3639 3.84 41.8839 3.84ZM40.6119 18V6.096H43.1559V18H40.6119Z" fill="white"/>
</svg>
