<svg width="349" height="239" viewBox="0 0 349 239" fill="none" xmlns="http://www.w3.org/2000/svg">
<rect width="349" height="238.577" rx="16.1201" fill="#1E75FF"/>
<path opacity="0.1" d="M55.6143 183.769H325.626" stroke="white" stroke-width="1.20901"/>
<path opacity="0.1" d="M55.6143 137.827H325.626" stroke="white" stroke-width="1.20901"/>
<path opacity="0.1" d="M55.6143 91.8843H325.626" stroke="white" stroke-width="1.20901"/>
<path opacity="0.1" d="M55.6143 45.9424H325.626" stroke="white" stroke-width="1.20901"/>
<path opacity="0.75" d="M59.7056 205.101H60.9398V210.919C60.9398 211.445 60.8356 211.895 60.6272 212.269C60.4215 212.643 60.1317 212.929 59.7577 213.127C59.3837 213.322 58.9456 213.419 58.4433 213.419C57.9812 213.419 57.5658 213.335 57.1971 213.167C56.8311 212.999 56.5413 212.754 56.3276 212.434C56.1165 212.11 56.011 211.718 56.011 211.255H57.2412C57.2412 211.483 57.2933 211.679 57.3975 211.845C57.5043 212.01 57.6499 212.14 57.8343 212.233C58.0213 212.324 58.235 212.369 58.4754 212.369C58.7372 212.369 58.9589 212.315 59.1406 212.205C59.3249 212.093 59.4652 211.929 59.5613 211.712C59.6575 211.496 59.7056 211.231 59.7056 210.919V205.101ZM64.437 213.443C64.047 213.443 63.6944 213.371 63.3791 213.227C63.0639 213.08 62.8141 212.868 62.6298 212.59C62.4481 212.312 62.3573 211.971 62.3573 211.568C62.3573 211.221 62.4241 210.935 62.5577 210.711C62.6912 210.486 62.8716 210.308 63.0986 210.178C63.3257 210.047 63.5795 209.948 63.86 209.881C64.1405 209.814 64.4263 209.763 64.7175 209.729C65.0862 209.686 65.3854 209.651 65.6151 209.625C65.8448 209.595 66.0118 209.548 66.116 209.484C66.2202 209.42 66.2723 209.316 66.2723 209.172V209.144C66.2723 208.794 66.1734 208.523 65.9757 208.33C65.7807 208.138 65.4895 208.042 65.1022 208.042C64.6988 208.042 64.3809 208.131 64.1485 208.31C63.9188 208.487 63.7598 208.683 63.6716 208.899L62.5456 208.643C62.6792 208.269 62.8742 207.967 63.1307 207.737C63.3898 207.505 63.6877 207.337 64.0243 207.232C64.3609 207.125 64.7148 207.072 65.0862 207.072C65.3319 207.072 65.5924 207.101 65.8676 207.16C66.1454 207.216 66.4045 207.32 66.6449 207.473C66.888 207.625 67.0871 207.843 67.242 208.126C67.3969 208.406 67.4744 208.771 67.4744 209.22V213.307H66.3043V212.466H66.2562C66.1788 212.621 66.0626 212.773 65.9076 212.922C65.7527 213.072 65.5537 213.196 65.3106 213.295C65.0675 213.394 64.7763 213.443 64.437 213.443ZM64.6975 212.482C65.0287 212.482 65.3119 212.416 65.547 212.285C65.7847 212.154 65.9651 211.983 66.0879 211.772C66.2135 211.559 66.2763 211.33 66.2763 211.087V210.294C66.2335 210.337 66.1507 210.377 66.0278 210.414C65.9076 210.449 65.77 210.479 65.6151 210.506C65.4602 210.53 65.3092 210.553 65.1623 210.574C65.0154 210.593 64.8925 210.609 64.7936 210.622C64.5612 210.652 64.3488 210.701 64.1565 210.771C63.9668 210.84 63.8146 210.94 63.6997 211.071C63.5875 211.199 63.5314 211.37 63.5314 211.584C63.5314 211.881 63.6409 212.105 63.86 212.257C64.079 212.407 64.3582 212.482 64.6975 212.482ZM70.2684 209.653V213.307H69.0702V207.152H70.2203V208.154H70.2964C70.438 207.828 70.6597 207.566 70.9616 207.369C71.2661 207.171 71.6495 207.072 72.1117 207.072C72.5311 207.072 72.8984 207.16 73.2136 207.337C73.5288 207.51 73.7733 207.769 73.9469 208.114C74.1206 208.459 74.2074 208.885 74.2074 209.392V213.307H73.0092V209.536C73.0092 209.09 72.893 208.742 72.6606 208.491C72.4282 208.237 72.109 208.11 71.7029 208.11C71.4251 208.11 71.178 208.17 70.9616 208.29C70.7479 208.41 70.5783 208.587 70.4527 208.819C70.3298 209.049 70.2684 209.327 70.2684 209.653Z" fill="white"/>
<path opacity="0.75" d="M117.772 213.307V205.101H122.861V206.166H119.01V208.667H122.497V209.729H119.01V213.307H117.772ZM126.489 213.431C125.882 213.431 125.36 213.302 124.922 213.043C124.487 212.781 124.15 212.414 123.912 211.941C123.677 211.465 123.56 210.908 123.56 210.27C123.56 209.639 123.677 209.084 123.912 208.603C124.15 208.122 124.481 207.747 124.906 207.477C125.333 207.207 125.833 207.072 126.405 207.072C126.752 207.072 127.089 207.129 127.414 207.244C127.74 207.359 128.033 207.54 128.292 207.785C128.551 208.031 128.755 208.35 128.905 208.743C129.055 209.133 129.129 209.607 129.129 210.166V210.59H124.237V209.693H127.955C127.955 209.377 127.891 209.098 127.763 208.855C127.635 208.609 127.454 208.416 127.222 208.274C126.992 208.133 126.723 208.062 126.413 208.062C126.076 208.062 125.782 208.145 125.531 208.31C125.283 208.473 125.09 208.687 124.954 208.951C124.82 209.213 124.754 209.498 124.754 209.805V210.506C124.754 210.918 124.826 211.268 124.97 211.556C125.117 211.845 125.321 212.065 125.583 212.217C125.845 212.367 126.151 212.442 126.501 212.442C126.728 212.442 126.935 212.41 127.122 212.345C127.309 212.279 127.471 212.18 127.607 212.049C127.743 211.918 127.847 211.756 127.919 211.564L129.053 211.768C128.963 212.102 128.8 212.395 128.564 212.646C128.332 212.894 128.04 213.088 127.687 213.227C127.337 213.363 126.938 213.431 126.489 213.431ZM130.555 213.307V205.101H131.753V208.15H131.825C131.895 208.022 131.995 207.873 132.126 207.705C132.257 207.537 132.438 207.39 132.671 207.264C132.903 207.136 133.21 207.072 133.592 207.072C134.089 207.072 134.533 207.198 134.923 207.449C135.313 207.7 135.619 208.062 135.84 208.535C136.065 209.007 136.177 209.576 136.177 210.242C136.177 210.907 136.066 211.477 135.844 211.953C135.623 212.426 135.318 212.79 134.931 213.047C134.543 213.3 134.101 213.427 133.604 213.427C133.23 213.427 132.925 213.365 132.687 213.239C132.452 213.113 132.267 212.967 132.134 212.798C132 212.63 131.897 212.48 131.825 212.349H131.725V213.307H130.555ZM131.729 210.23C131.729 210.662 131.792 211.042 131.917 211.368C132.043 211.694 132.225 211.949 132.462 212.133C132.7 212.315 132.991 212.406 133.336 212.406C133.694 212.406 133.993 212.311 134.234 212.121C134.474 211.929 134.656 211.668 134.779 211.34C134.904 211.011 134.967 210.641 134.967 210.23C134.967 209.824 134.905 209.459 134.783 209.136C134.662 208.812 134.481 208.557 134.238 208.37C133.997 208.183 133.697 208.09 133.336 208.09C132.989 208.09 132.695 208.179 132.454 208.358C132.217 208.537 132.036 208.787 131.913 209.108C131.791 209.428 131.729 209.802 131.729 210.23Z" fill="white"/>
<path opacity="0.75" d="M179.835 205.101H181.337L183.95 211.48H184.046L186.659 205.101H188.161V213.307H186.983V207.369H186.907L184.487 213.295H183.509L181.089 207.365H181.013V213.307H179.835V205.101ZM191.657 213.443C191.267 213.443 190.914 213.371 190.599 213.227C190.284 213.08 190.034 212.868 189.849 212.59C189.668 212.312 189.577 211.971 189.577 211.568C189.577 211.221 189.644 210.935 189.777 210.711C189.911 210.486 190.091 210.308 190.318 210.178C190.545 210.047 190.799 209.948 191.08 209.881C191.36 209.814 191.646 209.763 191.937 209.729C192.306 209.686 192.605 209.651 192.835 209.625C193.065 209.595 193.231 209.548 193.336 209.484C193.44 209.42 193.492 209.316 193.492 209.172V209.144C193.492 208.794 193.393 208.523 193.195 208.33C193 208.138 192.709 208.042 192.322 208.042C191.918 208.042 191.601 208.131 191.368 208.31C191.138 208.487 190.979 208.683 190.891 208.899L189.765 208.643C189.899 208.269 190.094 207.967 190.35 207.737C190.609 207.505 190.907 207.337 191.244 207.232C191.581 207.125 191.934 207.072 192.306 207.072C192.552 207.072 192.812 207.101 193.087 207.16C193.365 207.216 193.624 207.32 193.865 207.473C194.108 207.625 194.307 207.843 194.462 208.126C194.617 208.406 194.694 208.771 194.694 209.22V213.307H193.524V212.466H193.476C193.398 212.621 193.282 212.773 193.127 212.922C192.972 213.072 192.773 213.196 192.53 213.295C192.287 213.394 191.996 213.443 191.657 213.443ZM191.917 212.482C192.248 212.482 192.532 212.416 192.767 212.285C193.004 212.154 193.185 211.983 193.308 211.772C193.433 211.559 193.496 211.33 193.496 211.087V210.294C193.453 210.337 193.37 210.377 193.247 210.414C193.127 210.449 192.99 210.479 192.835 210.506C192.68 210.53 192.529 210.553 192.382 210.574C192.235 210.593 192.112 210.609 192.013 210.622C191.781 210.652 191.569 210.701 191.376 210.771C191.186 210.84 191.034 210.94 190.919 211.071C190.807 211.199 190.751 211.37 190.751 211.584C190.751 211.881 190.861 212.105 191.08 212.257C191.299 212.407 191.578 212.482 191.917 212.482ZM196.29 213.307V207.152H197.448V208.13H197.512C197.624 207.799 197.822 207.538 198.105 207.349C198.391 207.156 198.714 207.06 199.075 207.06C199.15 207.06 199.238 207.063 199.339 207.068C199.444 207.073 199.525 207.08 199.584 207.088V208.234C199.536 208.221 199.45 208.206 199.327 208.19C199.204 208.171 199.082 208.162 198.959 208.162C198.675 208.162 198.423 208.222 198.201 208.342C197.982 208.46 197.809 208.624 197.68 208.835C197.552 209.044 197.488 209.281 197.488 209.548V213.307H196.29Z" fill="white"/>
<path opacity="0.75" d="M243.396 213.307H242.082L245.035 205.101H246.466L249.419 213.307H248.105L245.784 206.591H245.72L243.396 213.307ZM243.617 210.093H247.88V211.135H243.617V210.093ZM250.508 215.615V207.152H251.678V208.15H251.778C251.848 208.022 251.948 207.873 252.079 207.705C252.21 207.537 252.391 207.39 252.624 207.264C252.856 207.136 253.163 207.072 253.545 207.072C254.042 207.072 254.486 207.198 254.876 207.449C255.266 207.7 255.572 208.062 255.793 208.535C256.018 209.007 256.13 209.576 256.13 210.242C256.13 210.907 256.019 211.477 255.797 211.953C255.576 212.426 255.271 212.79 254.884 213.047C254.496 213.3 254.054 213.427 253.557 213.427C253.183 213.427 252.877 213.365 252.64 213.239C252.405 213.113 252.22 212.967 252.087 212.798C251.953 212.63 251.85 212.48 251.778 212.349H251.706V215.615H250.508ZM251.682 210.23C251.682 210.662 251.745 211.042 251.87 211.368C251.996 211.694 252.178 211.949 252.415 212.133C252.653 212.315 252.944 212.406 253.289 212.406C253.647 212.406 253.946 212.311 254.186 212.121C254.427 211.929 254.608 211.668 254.731 211.34C254.857 211.011 254.92 210.641 254.92 210.23C254.92 209.824 254.858 209.459 254.735 209.136C254.615 208.812 254.434 208.557 254.19 208.37C253.95 208.183 253.649 208.09 253.289 208.09C252.942 208.09 252.648 208.179 252.407 208.358C252.169 208.537 251.989 208.787 251.866 209.108C251.743 209.428 251.682 209.802 251.682 210.23ZM257.472 213.307V207.152H258.63V208.13H258.694C258.807 207.799 259.004 207.538 259.287 207.349C259.573 207.156 259.897 207.06 260.257 207.06C260.332 207.06 260.42 207.063 260.522 207.068C260.626 207.073 260.707 207.08 260.766 207.088V208.234C260.718 208.221 260.633 208.206 260.51 208.19C260.387 208.171 260.264 208.162 260.141 208.162C259.858 208.162 259.605 208.222 259.384 208.342C259.165 208.46 258.991 208.624 258.863 208.835C258.735 209.044 258.67 209.281 258.67 209.548V213.307H257.472Z" fill="white"/>
<path opacity="0.75" d="M303.959 205.101H305.462L308.075 211.48H308.171L310.783 205.101H312.286V213.307H311.108V207.369H311.032L308.612 213.295H307.634L305.214 207.365H305.137V213.307H303.959V205.101ZM315.781 213.443C315.391 213.443 315.039 213.371 314.723 213.227C314.408 213.08 314.158 212.868 313.974 212.59C313.792 212.312 313.702 211.971 313.702 211.568C313.702 211.221 313.768 210.935 313.902 210.711C314.036 210.486 314.216 210.308 314.443 210.178C314.67 210.047 314.924 209.948 315.204 209.881C315.485 209.814 315.771 209.763 316.062 209.729C316.431 209.686 316.73 209.651 316.959 209.625C317.189 209.595 317.356 209.548 317.46 209.484C317.565 209.42 317.617 209.316 317.617 209.172V209.144C317.617 208.794 317.518 208.523 317.32 208.33C317.125 208.138 316.834 208.042 316.447 208.042C316.043 208.042 315.725 208.131 315.493 208.31C315.263 208.487 315.104 208.683 315.016 208.899L313.89 208.643C314.024 208.269 314.219 207.967 314.475 207.737C314.734 207.505 315.032 207.337 315.369 207.232C315.705 207.125 316.059 207.072 316.431 207.072C316.676 207.072 316.937 207.101 317.212 207.16C317.49 207.216 317.749 207.32 317.989 207.473C318.232 207.625 318.431 207.843 318.586 208.126C318.741 208.406 318.819 208.771 318.819 209.22V213.307H317.649V212.466H317.601C317.523 212.621 317.407 212.773 317.252 212.922C317.097 213.072 316.898 213.196 316.655 213.295C316.412 213.394 316.121 213.443 315.781 213.443ZM316.042 212.482C316.373 212.482 316.656 212.416 316.891 212.285C317.129 212.154 317.309 211.983 317.432 211.772C317.558 211.559 317.621 211.33 317.621 211.087V210.294C317.578 210.337 317.495 210.377 317.372 210.414C317.252 210.449 317.114 210.479 316.959 210.506C316.805 210.53 316.654 210.553 316.507 210.574C316.36 210.593 316.237 210.609 316.138 210.622C315.906 210.652 315.693 210.701 315.501 210.771C315.311 210.84 315.159 210.94 315.044 211.071C314.932 211.199 314.876 211.37 314.876 211.584C314.876 211.881 314.985 212.105 315.204 212.257C315.423 212.407 315.703 212.482 316.042 212.482ZM320.952 215.615C320.773 215.615 320.61 215.601 320.463 215.571C320.316 215.544 320.206 215.515 320.134 215.483L320.423 214.501C320.642 214.56 320.837 214.585 321.008 214.577C321.179 214.569 321.33 214.505 321.46 214.385C321.594 214.265 321.712 214.068 321.813 213.796L321.961 213.387L319.709 207.152H320.992L322.55 211.929H322.615L324.173 207.152H325.46L322.923 214.129C322.806 214.449 322.656 214.72 322.474 214.942C322.293 215.166 322.076 215.335 321.825 215.447C321.574 215.559 321.283 215.615 320.952 215.615Z" fill="white"/>
<path opacity="0.75" d="M20.3811 45.6582V44.7606L23.1581 41.8835C23.4546 41.5709 23.699 41.2971 23.8914 41.062C24.0864 40.8243 24.232 40.5985 24.3281 40.3848C24.4243 40.1711 24.4724 39.944 24.4724 39.7036C24.4724 39.4311 24.4083 39.196 24.28 38.9984C24.1518 38.798 23.9768 38.6444 23.7551 38.5375C23.5334 38.428 23.2836 38.3732 23.0058 38.3732C22.7119 38.3732 22.4555 38.4334 22.2364 38.5536C22.0174 38.6738 21.8491 38.8434 21.7315 39.0625C21.614 39.2815 21.5552 39.538 21.5552 39.8318H20.3731C20.3731 39.3323 20.488 38.8955 20.7177 38.5215C20.9475 38.1475 21.2627 37.8577 21.6634 37.652C22.0641 37.4436 22.5196 37.3394 23.0298 37.3394C23.5454 37.3394 23.9996 37.4423 24.3922 37.648C24.7876 37.851 25.0962 38.1288 25.3179 38.4814C25.5396 38.8314 25.6505 39.2268 25.6505 39.6676C25.6505 39.9721 25.5931 40.27 25.4782 40.5611C25.366 40.8523 25.1696 41.1769 24.8891 41.5349C24.6086 41.8902 24.2186 42.3216 23.7191 42.8292L22.0882 44.5362V44.5963H25.7827V45.6582H20.3811ZM26.9528 44.0554V43.0536L30.4991 37.4516H31.2885V38.9262H30.7876L28.2511 42.9414V43.0055H33.1118V44.0554H26.9528ZM30.8437 45.6582V43.7508L30.8517 43.294V37.4516H32.0258V45.6582H30.8437ZM35.6262 43.5705L35.6182 42.1079H35.8266L38.2789 39.5033H39.7135L36.9165 42.4685H36.7282L35.6262 43.5705ZM34.5243 45.6582V37.4516H35.7224V45.6582H34.5243ZM38.4112 45.6582L36.2073 42.733L37.0327 41.8955L39.8818 45.6582H38.4112Z" fill="white"/>
<path opacity="0.75" d="M25.1586 83.394V91.6006H23.9164V84.6362H23.8683L21.9048 85.9185V84.7324L23.9525 83.394H25.1586ZM30.1515 91.7128C29.5771 91.7128 29.0695 91.6139 28.6288 91.4163C28.1907 91.2186 27.8474 90.9461 27.5989 90.5988C27.3505 90.2515 27.2276 89.8562 27.2303 89.4127C27.2276 89.0654 27.2984 88.7462 27.4427 88.455C27.5896 88.1611 27.7886 87.9167 28.0397 87.7217C28.2908 87.524 28.5713 87.3984 28.8812 87.345V87.2969C28.4725 87.1981 28.1452 86.979 27.8995 86.6398C27.6537 86.3005 27.5321 85.9105 27.5348 85.4697C27.5321 85.0503 27.643 84.6763 27.8674 84.3477C28.0945 84.0164 28.4057 83.756 28.8011 83.5663C29.1964 83.3766 29.6466 83.2818 30.1515 83.2818C30.651 83.2818 31.0972 83.378 31.4899 83.5703C31.8852 83.76 32.1964 84.0204 32.4235 84.3517C32.6506 84.6803 32.7655 85.0529 32.7681 85.4697C32.7655 85.9105 32.6399 86.3005 32.3915 86.6398C32.143 86.979 31.8198 87.1981 31.4217 87.2969V87.345C31.7289 87.3984 32.0054 87.524 32.2512 87.7217C32.4996 87.9167 32.6973 88.1611 32.8443 88.455C32.9939 88.7462 33.07 89.0654 33.0727 89.4127C33.07 89.8562 32.9444 90.2515 32.696 90.5988C32.4476 90.9461 32.1029 91.2186 31.6622 91.4163C31.224 91.6139 30.7205 91.7128 30.1515 91.7128ZM30.1515 90.699C30.4907 90.699 30.7846 90.6429 31.033 90.5307C31.2815 90.4158 31.4738 90.2569 31.6101 90.0538C31.7463 89.8481 31.8158 89.6077 31.8184 89.3326C31.8158 89.0467 31.741 88.7943 31.594 88.5752C31.4498 88.3562 31.2534 88.1838 31.005 88.0583C30.7565 87.9327 30.472 87.87 30.1515 87.87C29.8282 87.87 29.5411 87.9327 29.2899 88.0583C29.0388 88.1838 28.8411 88.3562 28.6969 88.5752C28.5526 88.7943 28.4818 89.0467 28.4845 89.3326C28.4818 89.6077 28.5473 89.8481 28.6809 90.0538C28.8171 90.2569 29.0108 90.4158 29.2619 90.5307C29.513 90.6429 29.8095 90.699 30.1515 90.699ZM30.1515 86.8802C30.424 86.8802 30.6657 86.8254 30.8768 86.7159C31.0878 86.6064 31.2534 86.4541 31.3736 86.2591C31.4965 86.0641 31.5593 85.8357 31.562 85.5739C31.5593 85.3174 31.4979 85.093 31.3777 84.9007C31.2601 84.7083 31.0958 84.5601 30.8848 84.4559C30.6737 84.349 30.4293 84.2956 30.1515 84.2956C29.8683 84.2956 29.6199 84.349 29.4061 84.4559C29.1951 84.5601 29.0308 84.7083 28.9133 84.9007C28.7957 85.093 28.7383 85.3174 28.741 85.5739C28.7383 85.8357 28.7971 86.0641 28.9173 86.2591C29.0375 86.4541 29.2031 86.6064 29.4142 86.7159C29.6279 86.8254 29.8736 86.8802 30.1515 86.8802ZM35.6262 89.5129L35.6182 88.0503H35.8266L38.2789 85.4456H39.7135L36.9165 88.4109H36.7282L35.6262 89.5129ZM34.5242 91.6006V83.394H35.7224V91.6006H34.5242ZM38.4112 91.6006L36.2072 88.6754L37.0327 87.8379L39.8818 91.6006H38.4112Z" fill="white"/>
<path opacity="0.75" d="M25.368 129.336V137.542H24.1258V130.578H24.0777L22.1142 131.86V130.674L24.1618 129.336H25.368ZM27.5879 137.542V136.645L30.3649 133.768C30.6614 133.455 30.9058 133.181 31.0982 132.946C31.2932 132.709 31.4388 132.483 31.5349 132.269C31.6311 132.055 31.6792 131.828 31.6792 131.588C31.6792 131.315 31.6151 131.08 31.4868 130.883C31.3586 130.682 31.1836 130.529 30.9619 130.422C30.7402 130.312 30.4904 130.258 30.2126 130.258C29.9187 130.258 29.6623 130.318 29.4432 130.438C29.2242 130.558 29.0559 130.728 28.9383 130.947C28.8208 131.166 28.762 131.422 28.762 131.716H27.5799C27.5799 131.217 27.6948 130.78 27.9245 130.406C28.1543 130.032 28.4695 129.742 28.8702 129.536C29.2709 129.328 29.7264 129.224 30.2366 129.224C30.7522 129.224 31.2063 129.327 31.599 129.532C31.9944 129.735 32.303 130.013 32.5247 130.366C32.7464 130.716 32.8573 131.111 32.8573 131.552C32.8573 131.856 32.7998 132.154 32.685 132.445C32.5728 132.737 32.3764 133.061 32.0959 133.419C31.8154 133.774 31.4254 134.206 30.9258 134.713L29.2949 136.42V136.481H32.9895V137.542H27.5879ZM35.6262 135.455L35.6182 133.992H35.8266L38.2789 131.388H39.7135L36.9165 134.353H36.7282L35.6262 135.455ZM34.5242 137.542V129.336H35.7224V137.542H34.5242ZM38.4112 137.542L36.2072 134.617L37.0327 133.78L39.8818 137.542H38.4112Z" fill="white"/>
<path opacity="0.75" d="M30.1996 183.597C29.8336 183.592 29.473 183.525 29.1177 183.397C28.765 183.268 28.4445 183.055 28.156 182.756C27.8674 182.456 27.6364 182.054 27.4627 181.549C27.2918 181.045 27.2063 180.414 27.2063 179.658C27.2063 178.942 27.2771 178.306 27.4186 177.751C27.5629 177.195 27.7699 176.726 28.0397 176.344C28.3096 175.959 28.6355 175.667 29.0175 175.467C29.3995 175.266 29.8283 175.166 30.3038 175.166C30.7926 175.166 31.2267 175.262 31.6061 175.455C31.9854 175.647 32.2926 175.913 32.5277 176.252C32.7655 176.591 32.9164 176.977 32.9805 177.41H31.7584C31.6755 177.068 31.5113 176.789 31.2655 176.573C31.0197 176.356 30.6991 176.248 30.3038 176.248C29.7027 176.248 29.2339 176.51 28.8973 177.033C28.5633 177.557 28.395 178.285 28.3924 179.217H28.4525C28.5941 178.985 28.7677 178.787 28.9734 178.624C29.1818 178.459 29.4142 178.332 29.6706 178.244C29.9298 178.153 30.2023 178.107 30.4881 178.107C30.9636 178.107 31.3937 178.224 31.7784 178.456C32.1658 178.686 32.4743 179.004 32.704 179.41C32.9338 179.816 33.0487 180.28 33.0487 180.804C33.0487 181.328 32.9298 181.802 32.692 182.227C32.4569 182.651 32.1257 182.988 31.6983 183.236C31.2708 183.482 30.7713 183.602 30.1996 183.597ZM30.1956 182.555C30.5108 182.555 30.7926 182.478 31.0411 182.323C31.2895 182.168 31.4859 181.959 31.6301 181.698C31.7744 181.436 31.8465 181.143 31.8465 180.82C31.8465 180.505 31.7757 180.218 31.6341 179.959C31.4952 179.699 31.3029 179.494 31.0571 179.341C30.814 179.189 30.5362 179.113 30.2236 179.113C29.9859 179.113 29.7655 179.159 29.5625 179.249C29.3621 179.34 29.1858 179.466 29.0335 179.626C28.8812 179.786 28.761 179.971 28.6729 180.179C28.5874 180.385 28.5446 180.602 28.5446 180.832C28.5446 181.139 28.6154 181.424 28.757 181.686C28.9013 181.947 29.0976 182.159 29.3461 182.319C29.5972 182.476 29.8804 182.555 30.1956 182.555ZM35.6262 181.397L35.6182 179.935H35.8266L38.279 177.33H39.7135L36.9165 180.295H36.7282L35.6262 181.397ZM34.5243 183.485V175.278H35.7224V183.485H34.5243ZM38.4112 183.485L36.2073 180.56L37.0327 179.722L39.8818 183.485H38.4112Z" fill="white"/>
<path d="M253.085 22.5679L253.085 183.769" stroke="white" stroke-width="1.20901" stroke-dasharray="8 8"/>
<path d="M54.8083 131.229C90.6755 79.6442 144.215 76.0172 184.978 96.9733C279.903 145.774 287.744 51.4341 329.656 51.4341" stroke="white" stroke-width="2.01501" stroke-linecap="round"/>
</svg>
