<svg width="10" height="10" viewBox="0 0 10 10" fill="none" xmlns="http://www.w3.org/2000/svg">
<path d="M0.5 1.54545C0.5 1.24242 0.601354 0.992418 0.804054 0.795455C1.00675 0.598482 1.27027 0.5 1.59459 0.5C1.91313 0.5 2.17085 0.596964 2.36776 0.790909C2.57046 0.990909 2.67181 1.25151 2.67181 1.57273C2.67181 1.86364 2.57336 2.10605 2.37645 2.3C2.17375 2.5 1.90734 2.6 1.57722 2.6H1.56853C1.25 2.6 0.992281 2.5 0.795367 2.3C0.598453 2.1 0.5 1.84848 0.5 1.54545ZM0.612934 9.5V3.42727H2.54151V9.5H0.612934ZM3.61004 9.5H5.53861V6.10909C5.53861 5.89696 5.56178 5.73333 5.60811 5.61818C5.68919 5.41212 5.81226 5.23787 5.97732 5.09545C6.14237 4.95303 6.34942 4.88182 6.59846 4.88182C7.24711 4.88182 7.57143 5.33939 7.57143 6.25455V9.5H9.5V6.01818C9.5 5.12121 9.2973 4.44091 8.89189 3.97727C8.48648 3.51364 7.95078 3.28182 7.28475 3.28182C6.53764 3.28182 5.9556 3.61818 5.53861 4.29091V4.30909H5.52992L5.53861 4.29091V3.42727H3.61004C3.62162 3.62121 3.62741 4.22424 3.62741 5.23636C3.62741 6.24848 3.62162 7.66969 3.61004 9.5Z" fill="#D2EFFF"/>
</svg>
