<svg width="10" height="8" viewBox="0 0 10 8" fill="none" xmlns="http://www.w3.org/2000/svg">
<path d="M10 0.947583C9.62383 1.10912 9.226 1.21649 8.81874 1.26637C9.24794 1.01565 9.56882 0.618637 9.72058 0.150555C9.31881 0.385153 8.87926 0.550379 8.42092 0.639088C8.13983 0.343401 7.77488 0.137815 7.37353 0.0490603C6.97217 -0.039694 6.55298 -0.00751064 6.17045 0.141426C5.78792 0.290362 5.45975 0.549161 5.22861 0.884175C4.99747 1.21919 4.87405 1.61492 4.8744 2.01992C4.87282 2.17446 4.88876 2.32869 4.92192 2.47976C4.10634 2.44039 3.30838 2.232 2.58021 1.8682C1.85204 1.5044 1.21006 0.993394 0.696227 0.368581C0.432422 0.812591 0.350671 1.33898 0.467661 1.84032C0.58465 2.34165 0.891559 2.78013 1.32575 3.06626C1.00137 3.05763 0.683851 2.97236 0.399947 2.81764V2.83964C0.400481 3.30574 0.5641 3.75744 0.863263 4.11869C1.16243 4.47994 1.57886 4.72868 2.04248 4.82306C1.86709 4.86857 1.68633 4.89093 1.50495 4.88953C1.37472 4.8918 1.24461 4.88024 1.11689 4.85505C1.24939 5.25563 1.50475 5.60593 1.84781 5.85773C2.19088 6.10953 2.60478 6.25044 3.03255 6.26107C2.30689 6.81979 1.41194 7.1229 0.49072 7.12197C0.326712 7.12303 0.162803 7.11375 0 7.09418C0.937419 7.68891 2.02977 8.00352 3.14495 7.99997C6.91739 7.99997 8.97998 4.92332 8.97998 2.25644C8.97998 2.16717 8.97683 2.0811 8.97246 1.99552C9.37683 1.71061 9.72504 1.35549 10 0.947583Z" fill="#D2EFFF"/>
</svg>
